<svg xmlns="http://www.w3.org/2000/svg" xmlns:xlink="http://www.w3.org/1999/xlink" style="display:none"><symbol  viewBox='0 0 1024 1024' id='icon-euro'>
    <path class="path1" d="M480 64C214.904 64 0 278.904 0 544s214.904 480 480 480c265.098 0 480-214.902 480-480S745.098 64 480 64zm0 864C267.922 928 96 756.078 96 544s171.922-384 384-384c212.076 0 384 171.922 384 384S692.076 928 480 928z"></path><path class="path2" d="M670.824 644.34c-15.27-8.884-34.862-3.708-43.75 11.57C609.818 685.572 577.986 704 544 704H416c-41.716 0-77.286-26.754-90.496-64H480c17.672 0 32-14.326 32-32s-14.328-32-32-32H320v-64h160c17.672 0 32-14.328 32-32s-14.328-32-32-32H325.504c13.21-37.246 48.78-64 90.496-64h128c33.986 0 65.818 18.426 83.074 48.09 8.888 15.276 28.478 20.456 43.752 11.568 15.276-8.888 20.456-28.476 11.568-43.752C653.722 350.618 600.692 320 544 320H416c-77.268 0-141.914 55.056-156.78 128H224c-17.672 0-32 14.328-32 32s14.328 32 32 32h32v64h-32c-17.672 0-32 14.326-32 32s14.328 32 32 32h35.22c14.866 72.944 79.512 128 156.78 128h128c56.692 0 109.72-30.62 138.394-79.91 8.888-15.276 3.708-34.864-11.57-43.75z"></path>
  </symbol><symbol  viewBox='0 0 1024 1024' id='icon-pencil'>
    <path class="path1" d="M864 0c88.364 0 160 71.634 160 160 0 36.02-11.91 69.258-32 96l-64 64L704 96l64-64c26.742-20.09 59.978-32 96-32zM64 736L0 1024l288-64 592-592-224-224L64 736zm651.578-372.422l-448 448-55.156-55.156 448-448 55.156 55.156z"></path>
  </symbol><symbol  viewBox='0 0 1024 1024' id='icon-pin'>
    <path class="path1" d="M544 0l-96 96 96 96-224 256H96l176 176L0 984.616V1024h39.384L400 752l176 176V704l256-224 96 96 96-96L544 0zm-96 544l-64-64 224-224 64 64-224 224z"></path>
  </symbol><symbol  viewBox='0 0 1024 1024' id='icon-settings'>
    <path class="path1" d="M933.79 610.25c-53.726-93.054-21.416-212.304 72.152-266.488L905.316 169.47c-28.75 16.854-62.176 26.518-97.846 26.518-107.536 0-194.708-87.746-194.708-195.99H411.504c.266 33.41-8.074 67.282-25.958 98.252-53.724 93.056-173.156 124.702-266.862 70.758L18.06 343.3c28.97 16.472 54.05 40.588 71.886 71.478 53.638 92.908 21.512 211.92-71.708 266.224l100.626 174.292c28.65-16.696 61.916-26.254 97.4-26.254 107.196 0 194.144 87.192 194.7 194.958h201.254c-.086-33.074 8.272-66.57 25.966-97.218 53.636-92.906 172.776-124.594 266.414-71.012l100.626-174.29c-28.78-16.466-53.692-40.498-71.434-71.228zM512 719.332c-114.508 0-207.336-92.824-207.336-207.334 0-114.508 92.826-207.334 207.336-207.334 114.508 0 207.332 92.826 207.332 207.334-.002 114.51-92.824 207.334-207.332 207.334z"></path>
  </symbol><symbol  viewBox='0 0 1024 1024' id='icon-twitter'>
    <path class="path1" d="M1024 226.4c-37.6 16.8-78.2 28-120.6 33 43.4-26 76.6-67.2 92.4-116.2-40.6 24-85.6 41.6-133.4 51C824 153.4 769.4 128 709 128c-116 0-210 94-210 210 0 16.4 1.8 32.4 5.4 47.8-174.6-8.8-329.4-92.4-433-219.6-18 31-28.4 67.2-28.4 105.6 0 72.8 37 137.2 93.4 174.8-34.4-1-66.8-10.6-95.2-26.2v2.6c0 101.8 72.4 186.8 168.6 206-17.6 4.8-36.2 7.4-55.4 7.4-13.6 0-26.6-1.4-39.6-3.8 26.8 83.4 104.4 144.2 196.2 146-72 56.4-162.4 90-261 90-17 0-33.6-1-50.2-3C93 925.4 203.4 960 322 960c386.4 0 597.8-320.2 597.8-597.8 0-9.2-.2-18.2-.6-27.2 41-29.4 76.6-66.4 104.8-108.6z"></path>
  </symbol><symbol  viewBox='0 0 1024 1024' id='icon-up'>
    <path class="path1" d="M877.254 402.746l-320-320c-24.992-24.994-65.514-24.994-90.508 0l-320 320c-24.994 24.994-24.994 65.516 0 90.51 24.994 24.996 65.516 24.996 90.51 0L448 282.51V896c0 35.346 28.654 64 64 64s64-28.654 64-64V282.51l210.746 210.746C799.242 505.752 815.622 512 832 512s32.758-6.248 45.254-18.746c24.994-24.994 24.994-65.514 0-90.508z"></path>
  </symbol></svg>