<svg><path class="path1" d="M480 64C214.904 64 0 278.904 0 544s214.904 480 480 480c265.098 0 480-214.902 480-480S745.098 64 480 64zm0 864C267.922 928 96 756.078 96 544s171.922-384 384-384c212.076 0 384 171.922 384 384S692.076 928 480 928z"/><path class="path2" d="M670.824 644.34c-15.27-8.884-34.862-3.708-43.75 11.57C609.818 685.572 577.986 704 544 704H416c-41.716 0-77.286-26.754-90.496-64H480c17.672 0 32-14.326 32-32s-14.328-32-32-32H320v-64h160c17.672 0 32-14.328 32-32s-14.328-32-32-32H325.504c13.21-37.246 48.78-64 90.496-64h128c33.986 0 65.818 18.426 83.074 48.09 8.888 15.276 28.478 20.456 43.752 11.568 15.276-8.888 20.456-28.476 11.568-43.752C653.722 350.618 600.692 320 544 320H416c-77.268 0-141.914 55.056-156.78 128H224c-17.672 0-32 14.328-32 32s14.328 32 32 32h32v64h-32c-17.672 0-32 14.326-32 32s14.328 32 32 32h35.22c14.866 72.944 79.512 128 156.78 128h128c56.692 0 109.72-30.62 138.394-79.91 8.888-15.276 3.708-34.864-11.57-43.75z"/></svg>